
<svg width="800" height="520" viewBox="0 0 800 520" fill="none" xmlns="http://www.w3.org/2000/svg">
<defs>
  <linearGradient id="g1" x1="0" y1="0" x2="800" y2="520" gradientUnits="userSpaceOnUse">
    <stop stop-color="#5b6aff" stop-opacity="0.9"/>
    <stop offset="1" stop-color="#2ad3b5" stop-opacity="0.6"/>
  </linearGradient>
  <linearGradient id="g2" x1="0" y1="0" x2="0" y2="1">
    <stop stop-color="#ffffff" stop-opacity="0.15"/>
    <stop offset="1" stop-color="#ffffff" stop-opacity="0.02"/>
  </linearGradient>
</defs>
<rect x="0" y="0" width="800" height="520" rx="24" fill="url(#g2)"/>
<g opacity="0.9">
  <circle cx="120" cy="100" r="80" fill="url(#g1)"/>
  <circle cx="255" cy="200" r="40" fill="url(#g1)" opacity="0.7"/>
  <circle cx="680" cy="130" r="90" fill="url(#g1)" opacity="0.5"/>
  <circle cx="520" cy="300" r="70" fill="url(#g1)" opacity="0.7"/>
</g>
<g>
  <rect x="110" y="350" width="580" height="120" rx="16" fill="#0f1530" stroke="rgba(255,255,255,0.15)"/>
  <rect x="130" y="372" width="220" height="16" rx="8" fill="#9fb3ff"/>
  <rect x="130" y="400" width="440" height="12" rx="6" fill="#5b6aff" opacity="0.6"/>
  <rect x="130" y="420" width="360" height="12" rx="6" fill="#2ad3b5" opacity="0.6"/>
</g>
<g>
  <rect x="480" y="70" width="210" height="150" rx="16" fill="#0f1530" stroke="rgba(255,255,255,0.15)"/>
  <circle cx="515" cy="105" r="12" fill="#2ad3b5"/>
  <rect x="540" y="97" width="130" height="10" rx="5" fill="#9fb3ff"/>
  <rect x="500" y="125" width="170" height="8" rx="4" fill="#5b6aff" opacity="0.7"/>
  <rect x="500" y="145" width="170" height="8" rx="4" fill="#2ad3b5" opacity="0.7"/>
  <rect x="500" y="165" width="170" height="8" rx="4" fill="#ff7a59" opacity="0.7"/>
</g>
</svg>
